<svg width="64" height="64" viewBox="0 0 64 64" fill="none" xmlns="http://www.w3.org/2000/svg">
  <defs>
    <linearGradient id="partnerBg" x1="12" y1="4" x2="52" y2="60" gradientUnits="userSpaceOnUse">
      <stop stop-color="#2BB85A"/>
      <stop offset="1" stop-color="#1A8F44"/>
    </linearGradient>
    <linearGradient id="partnerSheen" x1="32" y1="6" x2="32" y2="34" gradientUnits="userSpaceOnUse">
      <stop stop-color="white" stop-opacity="0.22"/>
      <stop offset="1" stop-color="white" stop-opacity="0"/>
    </linearGradient>
  </defs>

  <!-- App tile -->
  <rect width="64" height="64" rx="16" fill="url(#partnerBg)"/>
  <rect x="1" y="1" width="62" height="62" rx="15" stroke="white" stroke-opacity="0.18"/>
  <path d="M16 2.5h32c7.18 0 13 5.82 13 13v8.5H3V15.5c0-7.18 5.82-13 13-13Z" fill="url(#partnerSheen)"/>

  <!-- White Autolokate A -->
  <g transform="translate(10 10)">
    <path d="M25.6838 21.8421C25.4925 21.3764 25.2467 20.9702 24.9275 20.5956C24.582 20.1901 24.187 19.8566 23.7104 19.6404C22.2995 19.0004 20.9471 19.103 19.6902 20.0385C18.9186 20.6128 18.4033 21.3722 18.1539 22.3027C17.8541 23.4215 18.0827 24.4563 18.6663 25.4345C19.0294 26.043 19.3773 26.6606 19.7356 27.2721C20.0874 27.8727 20.4453 28.4697 20.7967 29.0705C20.8905 29.2308 20.9703 29.3993 21.0726 29.5947C20.9073 29.6433 20.7545 29.6982 20.5972 29.7326C19.899 29.8858 19.2757 30.2017 18.6993 30.6125C18.4139 30.8159 18.1288 31.0263 17.8771 31.2684C17.5427 31.59 17.2487 31.953 16.9236 32.2849C16.4741 32.7437 16.0691 33.26 15.4666 33.5378C14.9866 33.7592 14.4837 33.8866 13.9482 33.9073C13.1086 33.9397 12.2987 33.831 11.5572 33.4247C10.7597 32.9878 10.204 32.3291 9.84978 31.4853C9.51 30.6762 9.5561 29.8308 9.60212 28.9956C9.62232 28.6292 9.795 28.2526 9.96811 27.9165C10.5298 26.8261 11.1206 25.7507 11.7061 24.6727C12.2755 23.6242 12.855 22.5813 13.4245 21.5329C13.9477 20.5697 14.4682 19.605 14.9808 18.6362C15.3366 17.9637 15.671 17.2799 16.0256 16.6068C16.5654 15.5823 17.1084 14.5595 17.6616 13.5423C18.0081 12.9052 18.3587 12.2692 18.7397 11.6526C19.0056 11.2223 19.4128 10.9213 19.8345 10.6478C20.5958 10.1541 21.4454 10.0538 22.3236 10.1001C23.0107 10.1364 23.6624 10.3287 24.2337 10.706C24.825 11.0963 25.3086 11.606 25.6528 12.2381C26.2054 13.253 26.7732 14.2598 27.3202 15.2777C27.6567 15.9041 27.9585 16.549 28.2899 17.1782C28.8939 18.3249 29.507 19.4668 30.119 20.6093C30.4866 21.2955 30.8587 21.9793 31.2301 22.6635C31.7614 23.6422 32.2952 24.6197 32.8254 25.599C33.2031 26.2967 33.59 26.9899 33.9479 27.6977C34.2536 28.3022 34.424 28.9379 34.43 29.6333C34.4365 30.381 34.3417 31.0965 34.0198 31.766C33.7609 32.3044 33.3803 32.757 32.8986 33.1231C32.3805 33.517 31.788 33.7504 31.1604 33.8446C30.1023 34.0035 29.0537 33.9515 28.1474 33.2922C27.7998 33.0394 27.5164 32.697 27.2114 32.3879C26.9263 32.0991 26.6586 31.7928 26.3704 31.5072C25.6025 30.7466 24.7282 30.1494 23.6922 29.8121C23.5009 29.7498 23.3037 29.7022 23.1061 29.6644C22.9344 29.6316 22.9157 29.5527 22.9945 29.4156C23.3074 28.8712 23.6166 28.3247 23.9317 27.7814C24.4742 26.846 25.0554 25.931 25.5546 24.9732C26.0757 23.9732 26.093 22.9152 25.6838 21.8421Z" fill="white"/>
    <path d="M23.238 24.18C22.9989 24.6047 22.2555 24.943 21.739 24.8535C21.0498 24.7338 20.4525 24.1058 20.4208 23.4081C20.3969 22.8806 20.5999 22.4126 21.0437 22.091C21.9421 21.4401 23.2357 21.8896 23.4673 23.0494C23.5503 23.4655 23.4552 23.8215 23.238 24.18Z" fill="white"/>
  </g>
</svg>
